<svg width="20" height="21" viewBox="0 0 20 21" fill="none" xmlns="http://www.w3.org/2000/svg">
<mask id="mask0_5715_18292" style="mask-type:alpha" maskUnits="userSpaceOnUse" x="0" y="0" width="20" height="21">
<rect y="0.634766" width="20" height="20" fill="#D9D9D9"/>
</mask>
<g mask="url(#mask0_5715_18292)">
<path d="M2.66504 14.6221C2.66504 14.3068 2.74116 14.0284 2.89341 13.787C3.04565 13.5457 3.25837 13.3452 3.53158 13.1855C4.21243 12.7843 4.92891 12.4683 5.68104 12.2375C6.43318 12.0067 7.28895 11.8914 8.24835 11.8914C9.20775 11.8914 10.0635 12.0067 10.8156 12.2375C11.5678 12.4683 12.2843 12.7843 12.9651 13.1855C13.2383 13.3452 13.4511 13.5457 13.6033 13.787C13.7555 14.0284 13.8316 14.3068 13.8316 14.6221V14.9586C13.8316 15.2483 13.7248 15.5039 13.511 15.7255C13.2972 15.9471 13.0374 16.058 12.7315 16.058H3.75848C3.45259 16.058 3.19388 15.9511 2.98235 15.7375C2.77081 15.5239 2.66504 15.2643 2.66504 14.9586V14.6221ZM16.2355 16.058H15.072C15.149 15.8806 15.2115 15.7001 15.2595 15.5164C15.3076 15.3327 15.3316 15.1468 15.3316 14.9586V14.6862C15.3316 14.167 15.2324 13.6908 15.034 13.2577C14.8356 12.8245 14.5737 12.4722 14.2484 12.2007C14.6404 12.3118 15.0285 12.4477 15.4126 12.6085C15.7967 12.7693 16.1751 12.9619 16.548 13.1862C16.7841 13.3187 16.9743 13.5212 17.1185 13.7937C17.2627 14.0662 17.3348 14.3637 17.3348 14.6862V14.9586C17.3348 15.2643 17.228 15.5239 17.0144 15.7375C16.8008 15.9511 16.5412 16.058 16.2355 16.058ZM8.24835 10.3785C7.52962 10.3785 6.91938 10.1276 6.41764 9.6259C5.91591 9.12416 5.66504 8.51393 5.66504 7.79519C5.66504 7.07644 5.91591 6.4662 6.41764 5.96448C6.91938 5.46275 7.52962 5.21188 8.24835 5.21188C8.96709 5.21188 9.57732 5.46275 10.0791 5.96448C10.5808 6.4662 10.8316 7.07644 10.8316 7.79519C10.8316 8.51393 10.5808 9.12416 10.0791 9.6259C9.57732 10.1276 8.96709 10.3785 8.24835 10.3785ZM14.1105 7.79519C14.1105 8.51393 13.8596 9.12416 13.3579 9.6259C12.8561 10.1276 12.2459 10.3785 11.5271 10.3785C11.4748 10.3785 11.4454 10.3817 11.439 10.3881C11.4326 10.3945 11.4032 10.3919 11.3509 10.3801C11.6518 10.0267 11.8904 9.6335 12.0669 9.20059C12.2434 8.76767 12.3316 8.29887 12.3316 7.79419C12.3316 7.28953 12.2416 6.82271 12.0616 6.39375C11.8816 5.96481 11.6447 5.57032 11.3509 5.21027C11.3872 5.20921 11.4166 5.20921 11.439 5.21027C11.4614 5.21134 11.4908 5.21188 11.5271 5.21188C12.2459 5.21188 12.8561 5.46275 13.3579 5.96448C13.8596 6.4662 14.1105 7.07644 14.1105 7.79519Z" fill="#1931A9"/>
</g>
</svg>
