<svg width="20" height="20" viewBox="0 0 20 20" fill="none" xmlns="http://www.w3.org/2000/svg">
<mask id="mask0_5616_18273" style="mask-type:alpha" maskUnits="userSpaceOnUse" x="0" y="0" width="20" height="20">
<rect width="20" height="20" fill="#D9D9D9"/>
</mask>
<g mask="url(#mask0_5616_18273)">
<path d="M3.7565 16.5834C3.38139 16.5834 3.06432 16.4539 2.80529 16.1949C2.54626 15.9358 2.41675 15.6188 2.41675 15.2437V6.75654C2.41675 6.38143 2.54626 6.06436 2.80529 5.80533C3.06432 5.5463 3.38139 5.41679 3.7565 5.41679H7.41675V4.16881C7.41675 3.79249 7.54644 3.47586 7.80583 3.21891C8.06522 2.96197 8.38272 2.8335 8.75833 2.8335H11.2491C11.6247 2.8335 11.941 2.96301 12.198 3.22204C12.4549 3.48107 12.5834 3.79813 12.5834 4.17323V5.41679H16.2436C16.6187 5.41679 16.9358 5.5463 17.1948 5.80533C17.4539 6.06436 17.5834 6.38143 17.5834 6.75654V15.2437C17.5834 15.6188 17.4539 15.9358 17.1948 16.1949C16.9358 16.4539 16.6187 16.5834 16.2436 16.5834H3.7565ZM3.7565 15.5001H16.2436C16.3077 15.5001 16.3665 15.4734 16.4199 15.42C16.4734 15.3665 16.5001 15.3078 16.5001 15.2437V6.75654C16.5001 6.69243 16.4734 6.63366 16.4199 6.58023C16.3665 6.52681 16.3077 6.5001 16.2436 6.5001H3.7565C3.69239 6.5001 3.63362 6.52681 3.58019 6.58023C3.52677 6.63366 3.50006 6.69243 3.50006 6.75654V15.2437C3.50006 15.3078 3.52677 15.3665 3.58019 15.42C3.63362 15.4734 3.69239 15.5001 3.7565 15.5001ZM8.50006 5.41679H11.5001V4.17323C11.5001 4.10911 11.4734 4.05035 11.4199 3.99693C11.3665 3.9435 11.3077 3.91679 11.2436 3.91679H8.7565C8.69239 3.91679 8.63362 3.9435 8.58019 3.99693C8.52677 4.05035 8.50006 4.10911 8.50006 4.17323V5.41679Z" fill="#46464F"/>
</g>
</svg>
