<svg width="21" height="21" viewBox="0 0 21 21" fill="none" xmlns="http://www.w3.org/2000/svg">
<mask id="mask0_5715_18295" style="mask-type:alpha" maskUnits="userSpaceOnUse" x="0" y="0" width="21" height="21">
<rect x="0.248047" y="0.0410156" width="20" height="20" fill="#D9D9D9"/>
</mask>
<g mask="url(#mask0_5715_18295)">
<path d="M4.00455 16.6244C3.62943 16.6244 3.31236 16.4949 3.05334 16.2359C2.79431 15.9769 2.66479 15.6598 2.66479 15.2847V6.79755C2.66479 6.42244 2.79431 6.10537 3.05334 5.84635C3.31236 5.58732 3.62943 5.4578 4.00455 5.4578H7.66479V4.20982C7.66479 3.83351 7.79449 3.51687 8.05388 3.25993C8.31327 3.00298 8.63077 2.87451 9.00638 2.87451H11.4972C11.8728 2.87451 12.1891 3.00403 12.446 3.26305C12.7029 3.52208 12.8314 3.83914 12.8314 4.21424V5.4578H16.4917C16.8668 5.4578 17.1839 5.58732 17.4429 5.84635C17.7019 6.10537 17.8314 6.42244 17.8314 6.79755V15.2847C17.8314 15.6598 17.7019 15.9769 17.4429 16.2359C17.1839 16.4949 16.8668 16.6244 16.4917 16.6244H4.00455ZM8.74811 5.4578H11.7481V4.21424C11.7481 4.15013 11.7214 4.09137 11.668 4.03795C11.6146 3.98452 11.5558 3.9578 11.4917 3.9578H9.00454C8.94043 3.9578 8.88166 3.98452 8.82823 4.03795C8.77482 4.09137 8.74811 4.15013 8.74811 4.21424V5.4578Z" fill="#1931A9"/>
</g>
</svg>
