<svg width="20" height="20" viewBox="0 0 20 20" fill="none" xmlns="http://www.w3.org/2000/svg">
<mask id="mask0_5616_18268" style="mask-type:alpha" maskUnits="userSpaceOnUse" x="0" y="0" width="20" height="20">
<rect width="20" height="20" fill="#D9D9D9"/>
</mask>
<g mask="url(#mask0_5616_18268)">
<path d="M2.66504 13.9873C2.66504 13.672 2.74116 13.3937 2.89341 13.1523C3.04565 12.9109 3.25837 12.7104 3.53158 12.5508C4.21243 12.1495 4.92891 11.8335 5.68104 11.6027C6.43318 11.372 7.28895 11.2566 8.24835 11.2566C9.20776 11.2566 10.0635 11.372 10.8156 11.6027C11.5678 11.8335 12.2843 12.1495 12.9651 12.5508C13.2383 12.7104 13.4511 12.9109 13.6033 13.1523C13.7555 13.3937 13.8316 13.672 13.8316 13.9873V14.3239C13.8316 14.6135 13.7248 14.8691 13.511 15.0907C13.2972 15.3124 13.0374 15.4232 12.7315 15.4232H3.75848C3.45259 15.4232 3.19388 15.3164 2.98235 15.1028C2.77081 14.8891 2.66504 14.6295 2.66504 14.3239V13.9873ZM16.2355 15.4232H15.072C15.149 15.2458 15.2115 15.0653 15.2595 14.8816C15.3076 14.698 15.3316 14.512 15.3316 14.3239V14.0514C15.3316 13.5322 15.2324 13.056 15.034 12.6229C14.8356 12.1898 14.5737 11.8374 14.2484 11.5659C14.6404 11.677 15.0285 11.8129 15.4126 11.9737C15.7967 12.1345 16.1751 12.3271 16.548 12.5514C16.7841 12.6839 16.9743 12.8864 17.1185 13.1589C17.2627 13.4314 17.3348 13.7289 17.3348 14.0514V14.3239C17.3348 14.6295 17.228 14.8891 17.0144 15.1028C16.8008 15.3164 16.5412 15.4232 16.2355 15.4232ZM8.24835 9.74372C7.52962 9.74372 6.91938 9.49286 6.41764 8.99113C5.91591 8.4894 5.66504 7.87916 5.66504 7.16043C5.66504 6.44168 5.91591 5.83144 6.41764 5.32972C6.91938 4.82798 7.52962 4.57711 8.24835 4.57711C8.96709 4.57711 9.57732 4.82798 10.0791 5.32972C10.5808 5.83144 10.8316 6.44168 10.8316 7.16043C10.8316 7.87916 10.5808 8.4894 10.0791 8.99113C9.57732 9.49286 8.96709 9.74372 8.24835 9.74372ZM14.1105 7.16043C14.1105 7.87916 13.8596 8.4894 13.3579 8.99113C12.8561 9.49286 12.2459 9.74372 11.5271 9.74372C11.4748 9.74372 11.4454 9.74693 11.439 9.75334C11.4326 9.75976 11.4032 9.75709 11.3509 9.74534C11.6518 9.39191 11.8904 8.99874 12.0669 8.56582C12.2434 8.1329 12.3316 7.66411 12.3316 7.15943C12.3316 6.65476 12.2416 6.18795 12.0616 5.75899C11.8816 5.33004 11.6447 4.93555 11.3509 4.57551C11.3872 4.57444 11.4166 4.57444 11.439 4.57551C11.4614 4.57658 11.4908 4.57711 11.5271 4.57711C12.2459 4.57711 12.8561 4.82798 13.3579 5.32972C13.8596 5.83144 14.1105 6.44168 14.1105 7.16043ZM3.74835 14.3399H12.7484V13.9873C12.7484 13.8761 12.722 13.7784 12.6693 13.6942C12.6166 13.6099 12.5238 13.5314 12.391 13.4585C11.8023 13.1048 11.1655 12.83 10.4807 12.6339C9.79589 12.4379 9.05177 12.3399 8.24835 12.3399C7.44494 12.3399 6.70081 12.4344 6.01598 12.6235C5.33116 12.8126 4.69441 13.091 4.10573 13.4585C3.97288 13.5298 3.8801 13.6061 3.82739 13.6874C3.7747 13.7688 3.74835 13.8681 3.74835 13.9854V14.3399ZM8.25277 8.66043C8.66649 8.66043 9.01919 8.51311 9.31085 8.21849C9.60252 7.92388 9.74835 7.56971 9.74835 7.15599C9.74835 6.74228 9.60105 6.38959 9.30643 6.09793C9.01181 5.80626 8.65764 5.66043 8.24393 5.66043C7.83021 5.66043 7.47752 5.80773 7.18585 6.10234C6.89419 6.39697 6.74835 6.75113 6.74835 7.16484C6.74835 7.57857 6.89566 7.93126 7.19027 8.22293C7.48489 8.51459 7.83906 8.66043 8.25277 8.66043Z" fill="#46464F"/>
</g>
</svg>
