<svg width="20" height="21" viewBox="0 0 20 21" fill="none" xmlns="http://www.w3.org/2000/svg">
<g clip-path="url(#clip0_4250_11111)">
<path d="M15.2462 5.971C15.5706 5.64653 15.5706 5.12046 15.2462 4.796V4.796C14.9217 4.47153 14.3956 4.47153 14.0712 4.796L10.0003 8.86683L5.92949 4.796C5.60503 4.47153 5.07896 4.47153 4.75449 4.796V4.796C4.43002 5.12046 4.43002 5.64653 4.75449 5.971L8.82533 10.0418L4.75449 14.1127C4.43003 14.4371 4.43002 14.9632 4.75449 15.2877V15.2877C5.07896 15.6121 5.60502 15.6121 5.92949 15.2877L10.0003 11.2168L14.0712 15.2877C14.3956 15.6121 14.9217 15.6121 15.2462 15.2877V15.2877C15.5706 14.9632 15.5706 14.4371 15.2462 14.1127L11.1753 10.0418L15.2462 5.971Z" fill="#181819" fill-opacity="0.9"/>
</g>
<defs>
<clipPath id="clip0_4250_11111">
<rect width="20" height="20" fill="white" transform="translate(0 0.0419922)"/>
</clipPath>
</defs>
</svg>
