<svg width="87" height="25" viewBox="0 0 87 25" fill="none" xmlns="http://www.w3.org/2000/svg">
<path d="M0.84 9.6C0.84 7.952 1.208 6.48 1.944 5.184C2.696 3.872 3.712 2.856 4.992 2.136C6.288 1.4 7.736 1.032 9.336 1.032C11.208 1.032 12.848 1.512 14.256 2.472C15.664 3.432 16.648 4.76 17.208 6.456H13.344C12.96 5.656 12.416 5.056 11.712 4.656C11.024 4.256 10.224 4.056 9.312 4.056C8.336 4.056 7.464 4.288 6.696 4.752C5.944 5.2 5.352 5.84 4.92 6.672C4.504 7.504 4.296 8.48 4.296 9.6C4.296 10.704 4.504 11.68 4.92 12.528C5.352 13.36 5.944 14.008 6.696 14.472C7.464 14.92 8.336 15.144 9.312 15.144C10.224 15.144 11.024 14.944 11.712 14.544C12.416 14.128 12.96 13.52 13.344 12.72H17.208C16.648 14.432 15.664 15.768 14.256 16.728C12.864 17.672 11.224 18.144 9.336 18.144C7.736 18.144 6.288 17.784 4.992 17.064C3.712 16.328 2.696 15.312 1.944 14.016C1.208 12.72 0.84 11.248 0.84 9.6ZM23.4379 0.24V18H20.0779V0.24H23.4379ZM39.3096 4.704V18H35.9256V16.32C35.4936 16.896 34.9256 17.352 34.2216 17.688C33.5336 18.008 32.7816 18.168 31.9656 18.168C30.9256 18.168 30.0056 17.952 29.2056 17.52C28.4056 17.072 27.7736 16.424 27.3096 15.576C26.8616 14.712 26.6376 13.688 26.6376 12.504V4.704H29.9976V12.024C29.9976 13.08 30.2616 13.896 30.7896 14.472C31.3176 15.032 32.0376 15.312 32.9496 15.312C33.8776 15.312 34.6056 15.032 35.1336 14.472C35.6616 13.896 35.9256 13.08 35.9256 12.024V4.704H39.3096ZM45.9848 6.624C46.4168 6.016 47.0088 5.512 47.7608 5.112C48.5288 4.696 49.4008 4.488 50.3768 4.488C51.5128 4.488 52.5368 4.768 53.4488 5.328C54.3768 5.888 55.1048 6.688 55.6328 7.728C56.1768 8.752 56.4488 9.944 56.4488 11.304C56.4488 12.664 56.1768 13.872 55.6328 14.928C55.1048 15.968 54.3768 16.776 53.4488 17.352C52.5368 17.928 51.5128 18.216 50.3768 18.216C49.4008 18.216 48.5368 18.016 47.7848 17.616C47.0488 17.216 46.4488 16.712 45.9848 16.104V24.336H42.6248V4.704H45.9848V6.624ZM53.0168 11.304C53.0168 10.504 52.8488 9.816 52.5128 9.24C52.1928 8.648 51.7608 8.2 51.2168 7.896C50.6888 7.592 50.1128 7.44 49.4888 7.44C48.8808 7.44 48.3048 7.6 47.7608 7.92C47.2328 8.224 46.8008 8.672 46.4648 9.264C46.1448 9.856 45.9848 10.552 45.9848 11.352C45.9848 12.152 46.1448 12.848 46.4648 13.44C46.8008 14.032 47.2328 14.488 47.7608 14.808C48.3048 15.112 48.8808 15.264 49.4888 15.264C50.1128 15.264 50.6888 15.104 51.2168 14.784C51.7608 14.464 52.1928 14.008 52.5128 13.416C52.8488 12.824 53.0168 12.12 53.0168 11.304ZM71.2504 11.064C71.2504 11.544 71.2184 11.976 71.1544 12.36H61.4344C61.5144 13.32 61.8504 14.072 62.4424 14.616C63.0344 15.16 63.7624 15.432 64.6264 15.432C65.8744 15.432 66.7624 14.896 67.2904 13.824H70.9144C70.5304 15.104 69.7944 16.16 68.7064 16.992C67.6184 17.808 66.2824 18.216 64.6984 18.216C63.4184 18.216 62.2664 17.936 61.2424 17.376C60.2344 16.8 59.4424 15.992 58.8664 14.952C58.3064 13.912 58.0264 12.712 58.0264 11.352C58.0264 9.976 58.3064 8.768 58.8664 7.728C59.4264 6.688 60.2104 5.888 61.2184 5.328C62.2264 4.768 63.3864 4.488 64.6984 4.488C65.9624 4.488 67.0904 4.76 68.0824 5.304C69.0904 5.848 69.8664 6.624 70.4104 7.632C70.9704 8.624 71.2504 9.768 71.2504 11.064ZM67.7704 10.104C67.7544 9.24 67.4424 8.552 66.8344 8.04C66.2264 7.512 65.4824 7.248 64.6024 7.248C63.7704 7.248 63.0664 7.504 62.4904 8.016C61.9304 8.512 61.5864 9.208 61.4584 10.104H67.7704ZM72.8389 11.304C72.8389 9.96 73.1029 8.768 73.6309 7.728C74.1749 6.688 74.9029 5.888 75.8149 5.328C76.7429 4.768 77.7749 4.488 78.9109 4.488C79.9029 4.488 80.7669 4.688 81.5029 5.088C82.2549 5.488 82.8549 5.992 83.3029 6.6V4.704H86.6869V18H83.3029V16.056C82.8709 16.68 82.2709 17.2 81.5029 17.616C80.7509 18.016 79.8789 18.216 78.8869 18.216C77.7669 18.216 76.7429 17.928 75.8149 17.352C74.9029 16.776 74.1749 15.968 73.6309 14.928C73.1029 13.872 72.8389 12.664 72.8389 11.304ZM83.3029 11.352C83.3029 10.536 83.1429 9.84 82.8229 9.264C82.5029 8.672 82.0709 8.224 81.5269 7.92C80.9829 7.6 80.3989 7.44 79.7749 7.44C79.1509 7.44 78.5749 7.592 78.0469 7.896C77.5189 8.2 77.0869 8.648 76.7509 9.24C76.4309 9.816 76.2709 10.504 76.2709 11.304C76.2709 12.104 76.4309 12.808 76.7509 13.416C77.0869 14.008 77.5189 14.464 78.0469 14.784C78.5909 15.104 79.1669 15.264 79.7749 15.264C80.3989 15.264 80.9829 15.112 81.5269 14.808C82.0709 14.488 82.5029 14.04 82.8229 13.464C83.1429 12.872 83.3029 12.168 83.3029 11.352Z" fill="#12141C"/>
</svg>
