<svg width="20" height="20" viewBox="0 0 20 20" fill="none" xmlns="http://www.w3.org/2000/svg">
<mask id="mask0_3438_17782" style="mask-type:alpha" maskUnits="userSpaceOnUse" x="0" y="0" width="20" height="20">
<rect width="20" height="20" fill="#D9D9D9"/>
</mask>
<g mask="url(#mask0_3438_17782)">
<path d="M3.75674 15.5831C3.39135 15.5831 3.07671 15.4512 2.81283 15.1873C2.54894 14.9234 2.41699 14.6088 2.41699 14.2434V5.75625C2.41699 5.38114 2.54894 5.06407 2.81283 4.80505C3.07671 4.54602 3.39135 4.4165 3.75674 4.4165H7.26368C7.44161 4.4165 7.61287 4.44856 7.77745 4.51267C7.94203 4.57677 8.0927 4.67719 8.22945 4.81394L9.83201 6.4165H16.2439C16.619 6.4165 16.936 6.54602 17.1951 6.80505C17.4541 7.06407 17.5836 7.38114 17.5836 7.75625V14.2434C17.5836 14.6088 17.4541 14.9234 17.1951 15.1873C16.936 15.4512 16.619 15.5831 16.2439 15.5831H3.75674ZM3.75674 14.4998H16.2439C16.3187 14.4998 16.3801 14.4758 16.4282 14.4277C16.4763 14.3796 16.5003 14.3182 16.5003 14.2434V7.75625C16.5003 7.68146 16.4763 7.62002 16.4282 7.57194C16.3801 7.52386 16.3187 7.49982 16.2439 7.49982H9.38333L7.45543 5.57194C7.42872 5.54523 7.40068 5.52653 7.3713 5.51584C7.34192 5.50516 7.31119 5.49982 7.27914 5.49982H3.75674C3.68195 5.49982 3.62051 5.52386 3.57243 5.57194C3.52435 5.62002 3.5003 5.68146 3.5003 5.75625V14.2434C3.5003 14.3182 3.52435 14.3796 3.57243 14.4277C3.62051 14.4758 3.68195 14.4998 3.75674 14.4998ZM12.2087 11.5366V12.4974C12.2087 12.6518 12.2605 12.7811 12.3642 12.8853C12.4679 12.9894 12.5966 13.0415 12.7503 13.0415C12.904 13.0415 13.0328 12.9894 13.1364 12.8853C13.2401 12.7811 13.292 12.6518 13.292 12.4974V11.5366H14.2503C14.404 11.5366 14.5328 11.4845 14.6364 11.3804C14.7401 11.2762 14.792 11.1479 14.792 10.9954C14.792 10.8429 14.7401 10.7153 14.6364 10.6124C14.5328 10.5096 14.404 10.4582 14.2503 10.4582H13.292V9.50421C13.292 9.35171 13.2405 9.22258 13.1377 9.11682C13.0349 9.01105 12.9072 8.95817 12.7547 8.95817C12.6022 8.95817 12.4739 9.01001 12.3697 9.11369C12.2656 9.21737 12.2135 9.34608 12.2135 9.49982V10.4582H11.2527C11.0983 10.4582 10.969 10.51 10.8649 10.6137C10.7607 10.7174 10.7087 10.8461 10.7087 10.9998C10.7087 11.1494 10.7605 11.2762 10.8642 11.3804C10.9679 11.4845 11.0966 11.5366 11.2503 11.5366H12.2087Z" fill="#12141C"/>
</g>
</svg>
