<svg width="20" height="20" viewBox="0 0 20 20" fill="none" xmlns="http://www.w3.org/2000/svg">
<mask id="mask0_5616_18263" style="mask-type:alpha" maskUnits="userSpaceOnUse" x="0" y="0" width="20" height="20">
<rect width="20" height="20" fill="#D9D9D9"/>
</mask>
<g mask="url(#mask0_5616_18263)">
<path d="M11.2084 6.32598V4.0695C11.2084 3.88164 11.2708 3.72584 11.3957 3.60211C11.5206 3.47837 11.6753 3.4165 11.8599 3.4165H15.9267C16.1187 3.4165 16.2762 3.47837 16.3991 3.60211C16.5219 3.72584 16.5834 3.88164 16.5834 4.0695V6.32598C16.5834 6.51976 16.5209 6.68051 16.3961 6.80823C16.2712 6.93596 16.1165 6.99982 15.9319 6.99982H11.8651C11.673 6.99982 11.5156 6.93596 11.3927 6.80823C11.2698 6.68051 11.2084 6.51976 11.2084 6.32598ZM3.41675 9.93727V4.06219C3.41675 3.87921 3.48146 3.72584 3.61089 3.60211C3.74032 3.47837 3.9007 3.4165 4.09202 3.4165H8.14364C8.31607 3.4165 8.46719 3.4784 8.597 3.60219C8.7268 3.72598 8.79171 3.87937 8.79171 4.06236V9.93744C8.79171 10.1083 8.72624 10.2586 8.59531 10.3884C8.46437 10.5182 8.31268 10.5831 8.14025 10.5831H4.08862C3.8973 10.5831 3.7375 10.5182 3.60921 10.3883C3.4809 10.2585 3.41675 10.1081 3.41675 9.93727ZM11.2084 15.9164V10.083C11.2084 9.89414 11.2708 9.73583 11.3957 9.60811C11.5206 9.48037 11.6753 9.4165 11.8599 9.4165H15.9267C16.1187 9.4165 16.2762 9.4804 16.3991 9.60819C16.5219 9.73597 16.5834 9.8943 16.5834 10.0832V15.9166C16.5834 16.1055 16.5209 16.2638 16.3961 16.3915C16.2712 16.5193 16.1165 16.5831 15.9319 16.5831H11.8651C11.673 16.5831 11.5156 16.5192 11.3927 16.3914C11.2698 16.2637 11.2084 16.1053 11.2084 15.9164ZM3.41675 15.9093V13.632C3.41675 13.4441 3.48146 13.2883 3.61089 13.1646C3.74032 13.0409 3.9007 12.979 4.09202 12.979H8.14364C8.31607 12.979 8.46719 13.0409 8.597 13.1646C8.7268 13.2883 8.79171 13.4441 8.79171 13.632V15.9093C8.79171 16.1031 8.72624 16.2638 8.59531 16.3915C8.46437 16.5193 8.31268 16.5831 8.14025 16.5831H4.08862C3.8973 16.5831 3.7375 16.5193 3.60921 16.3915C3.4809 16.2638 3.41675 16.1031 3.41675 15.9093ZM4.50006 9.49982H7.70842V4.49982H4.50006V9.49982ZM12.2917 15.4998H15.5001V10.4998H12.2917V15.4998ZM12.2917 5.93734H15.5001V4.49982H12.2917V5.93734ZM4.50006 15.4998H7.70842V14.0623H4.50006V15.4998Z" fill="#46464F"/>
</g>
</svg>
