<svg width="20" height="21" viewBox="0 0 20 21" fill="none" xmlns="http://www.w3.org/2000/svg">
<mask id="mask0_5715_18289" style="mask-type:alpha" maskUnits="userSpaceOnUse" x="0" y="0" width="20" height="21">
<rect y="0.853027" width="20" height="20" fill="#D9D9D9"/>
</mask>
<g mask="url(#mask0_5715_18289)">
<path d="M11.2082 7.17901V4.92253C11.2082 4.73467 11.2706 4.57887 11.3955 4.45514C11.5203 4.3314 11.675 4.26953 11.8596 4.26953H15.9265C16.1185 4.26953 16.276 4.3314 16.3988 4.45514C16.5217 4.57887 16.5831 4.73467 16.5831 4.92253V7.17901C16.5831 7.37279 16.5207 7.53354 16.3958 7.66126C16.271 7.78898 16.1162 7.85284 15.9317 7.85284H11.8648C11.6728 7.85284 11.5153 7.78898 11.3925 7.66126C11.2696 7.53354 11.2082 7.37279 11.2082 7.17901ZM3.4165 10.7903V4.91522C3.4165 4.73223 3.48122 4.57887 3.61065 4.45514C3.74008 4.3314 3.90046 4.26953 4.09177 4.26953H8.1434C8.31583 4.26953 8.46695 4.33143 8.59675 4.45522C8.72656 4.57901 8.79146 4.7324 8.79146 4.91539V10.7905C8.79146 10.9613 8.726 11.1116 8.59507 11.2414C8.46412 11.3712 8.31243 11.4362 8.14 11.4362H4.08838C3.89706 11.4362 3.73725 11.3712 3.60896 11.2413C3.48066 11.1115 3.4165 10.9611 3.4165 10.7903ZM11.2082 16.7695V10.9361C11.2082 10.7472 11.2706 10.5889 11.3955 10.4611C11.5203 10.3334 11.675 10.2695 11.8596 10.2695H15.9265C16.1185 10.2695 16.276 10.3334 16.3988 10.4612C16.5217 10.589 16.5831 10.7473 16.5831 10.9362V16.7696C16.5831 16.9585 16.5207 17.1168 16.3958 17.2446C16.271 17.3723 16.1162 17.4362 15.9317 17.4362H11.8648C11.6728 17.4362 11.5153 17.3723 11.3925 17.2445C11.2696 17.1167 11.2082 16.9584 11.2082 16.7695ZM3.4165 16.7623V14.485C3.4165 14.2971 3.48122 14.1413 3.61065 14.0176C3.74008 13.8939 3.90046 13.832 4.09177 13.832H8.1434C8.31583 13.832 8.46695 13.8939 8.59675 14.0176C8.72656 14.1413 8.79146 14.2971 8.79146 14.485V16.7623C8.79146 16.9561 8.726 17.1168 8.59507 17.2446C8.46412 17.3723 8.31243 17.4362 8.14 17.4362H4.08838C3.89706 17.4362 3.73725 17.3723 3.60896 17.2446C3.48066 17.1168 3.4165 16.9561 3.4165 16.7623Z" fill="#1931A9"/>
</g>
</svg>
