<svg width="24" height="24" viewBox="0 0 24 24" fill="none" xmlns="http://www.w3.org/2000/svg">
<mask id="mask0_2912_7632" style="mask-type:alpha" maskUnits="userSpaceOnUse" x="0" y="0" width="24" height="24">
<rect width="24" height="24" fill="#D9D9D9"/>
</mask>
<g mask="url(#mask0_2912_7632)">
<path d="M2 24.0004V21.0005H22V24.0004H2ZM6 16.4139H7.23653L15.5366 8.12925L14.9077 7.49077L14.2846 6.87732L6 15.1774V16.4139ZM4.50003 17.9138V14.5389L15.7097 3.34467C15.8545 3.1998 16.0189 3.0902 16.2029 3.01585C16.3869 2.94148 16.5783 2.9043 16.7771 2.9043C16.976 2.9043 17.1686 2.94148 17.355 3.01585C17.5414 3.0902 17.7122 3.20494 17.8673 3.36007L19.0692 4.57737C19.2243 4.72224 19.3365 4.88814 19.4057 5.07507C19.475 5.26202 19.5096 5.4552 19.5096 5.6546C19.5096 5.84155 19.4745 6.02751 19.4043 6.2125C19.3341 6.39748 19.2224 6.56652 19.0692 6.71962L7.87497 17.9138H4.50003ZM15.5366 8.12925L14.9077 7.49077L14.2846 6.87732L15.5366 8.12925Z" fill="#767680"/>
</g>
</svg>
