<svg width="21" height="20" viewBox="0 0 21 20" fill="none" xmlns="http://www.w3.org/2000/svg">
<mask id="mask0_4228_8722" style="mask-type:alpha" maskUnits="userSpaceOnUse" x="0" y="0" width="21" height="20">
<rect x="0.449219" width="20" height="20" fill="#D9D9D9"/>
</mask>
<g mask="url(#mask0_4228_8722)">
<path d="M10.4449 12.5098C10.3556 12.5098 10.2725 12.4938 10.1957 12.4617C10.1189 12.4297 10.0484 12.3816 9.98434 12.3175L6.12119 8.45433C6.00111 8.33426 5.94321 8.20425 5.94749 8.06429C5.95175 7.92433 6.01425 7.79399 6.13499 7.67327C6.25571 7.55255 6.38471 7.49219 6.52199 7.49219C6.65926 7.49219 6.78826 7.55255 6.90899 7.67327L10.4491 11.2342L14.01 7.67327C14.1254 7.55789 14.253 7.50234 14.393 7.5066C14.5329 7.51088 14.6633 7.57338 14.784 7.6941C14.9047 7.81483 14.9651 7.94383 14.9651 8.08112C14.9651 8.2184 14.9024 8.34936 14.7769 8.474L10.9138 12.3175C10.8441 12.3816 10.7709 12.4297 10.6941 12.4617C10.6173 12.4938 10.5342 12.5098 10.4449 12.5098Z" fill="#46464F"/>
</g>
</svg>
