<svg width="127" height="99" viewBox="0 0 127 99" fill="none" xmlns="http://www.w3.org/2000/svg">
<rect x="0.44" y="0.44" width="126.12" height="98.12" rx="7.56" fill="#F3F3F7"/>
<rect x="0.44" y="0.44" width="126.12" height="98.12" rx="7.56" stroke="#767680" stroke-width="0.88"/>
<path fill-rule="evenodd" clip-rule="evenodd" d="M75.8318 38.9517H52.749V62.9943H75.8318V38.9517ZM57.5388 45.4849H70.8801C71.1951 45.4849 71.4592 45.3792 71.6722 45.1677C71.8853 44.9562 71.9918 44.6942 71.9918 44.3816C71.9918 44.069 71.8853 43.8041 71.6722 43.587C71.4592 43.3699 71.1951 43.2614 70.8801 43.2614H57.5388C57.2238 43.2614 56.9597 43.3671 56.7467 43.5786C56.5336 43.7901 56.427 44.0521 56.427 44.3647C56.427 44.6773 56.5336 44.9422 56.7467 45.1593C56.9597 45.3763 57.2238 45.4849 57.5388 45.4849ZM70.8801 51.9582H57.5388C57.2238 51.9582 56.9597 51.8496 56.7467 51.6325C56.5336 51.4155 56.427 51.1506 56.427 50.838C56.427 50.5254 56.5336 50.2634 56.7467 50.0519C56.9597 49.8404 57.2238 49.7347 57.5388 49.7347H70.8801C71.1951 49.7347 71.4592 49.8432 71.6722 50.0603C71.8853 50.2774 71.9918 50.5423 71.9918 50.8549C71.9918 51.1675 71.8853 51.4295 71.6722 51.641C71.4592 51.8524 71.1951 51.9582 70.8801 51.9582ZM66.7751 58.4315H57.5388C57.2238 58.4315 56.9597 58.3229 56.7467 58.1058C56.5336 57.8888 56.427 57.6239 56.427 57.3113C56.427 56.9987 56.5336 56.7367 56.7467 56.5252C56.9597 56.3137 57.2238 56.208 57.5388 56.208H66.7751C67.0901 56.208 67.3541 56.3165 67.5672 56.5336C67.7803 56.7507 67.8868 57.0155 67.8868 57.3281C67.8868 57.6408 67.7803 57.9028 67.5672 58.1143C67.3541 58.3258 67.0901 58.4315 66.7751 58.4315Z" fill="#1931A9"/>
<path d="M53.4466 64.3598C52.6904 64.3598 52.0431 64.0905 51.5046 63.552C50.966 63.0135 50.6968 62.3662 50.6968 61.61V40.085C50.6968 39.3288 50.966 38.6814 51.5046 38.1429C52.0431 37.6044 52.6904 37.3351 53.4466 37.3351H61.1863C61.1512 36.5282 61.4231 35.8133 62.002 35.1905C62.581 34.5677 63.3194 34.2563 64.2173 34.2563C65.1153 34.2563 65.8537 34.5677 66.4326 35.1905C67.0116 35.8133 67.278 36.5282 67.2319 37.3351H74.9716C75.7278 37.3351 76.3752 37.6044 76.9137 38.1429C77.4522 38.6814 77.7215 39.3288 77.7215 40.085V61.61C77.7215 62.3662 77.4522 63.0135 76.9137 63.552C76.3752 64.0905 75.7278 64.3598 74.9716 64.3598H53.4466ZM53.4466 62.1363H74.9716C75.1032 62.1363 75.2238 62.0815 75.3335 61.9718C75.4431 61.8622 75.498 61.7415 75.498 61.61V40.085C75.498 39.9534 75.4431 39.8328 75.3335 39.7231C75.2238 39.6135 75.1032 39.5586 74.9716 39.5586H53.4466C53.315 39.5586 53.1944 39.6135 53.0847 39.7231C52.9751 39.8328 52.9203 39.9534 52.9203 40.085V61.61C52.9203 61.7415 52.9751 61.8622 53.0847 61.9718C53.1944 62.0815 53.315 62.1363 53.4466 62.1363ZM64.2091 38.6968C64.5056 38.6968 64.7508 38.5999 64.9446 38.4061C65.1385 38.2122 65.2354 37.9671 65.2354 37.6706C65.2354 37.3741 65.1385 37.1289 64.9446 36.9351C64.7508 36.7412 64.5056 36.6443 64.2091 36.6443C63.9126 36.6443 63.6675 36.7412 63.4736 36.9351C63.2798 37.1289 63.1829 37.3741 63.1829 37.6706C63.1829 37.9671 63.2798 38.2122 63.4736 38.4061C63.6675 38.5999 63.9126 38.6968 64.2091 38.6968Z" fill="#767680"/>
</svg>
