<svg width="20" height="20" viewBox="0 0 20 20" fill="none" xmlns="http://www.w3.org/2000/svg">
<mask id="mask0_5499_17587" style="mask-type:alpha" maskUnits="userSpaceOnUse" x="0" y="0" width="20" height="20">
<rect width="20" height="20" fill="#D9D9D9"/>
</mask>
<g mask="url(#mask0_5499_17587)">
<path d="M9.82423 15.5831C9.70962 15.5831 9.61305 15.5446 9.53452 15.4674C9.456 15.3903 9.41673 15.2942 9.41673 15.1793V10.6264L4.68919 4.90848C4.61227 4.80591 4.60122 4.69828 4.65604 4.58557C4.71088 4.47286 4.80045 4.4165 4.92475 4.4165H15.0753C15.1996 4.4165 15.2892 4.47286 15.344 4.58557C15.3989 4.69828 15.3878 4.80591 15.3109 4.90848L10.5834 10.6264V15.1793C10.5834 15.2942 10.5449 15.3903 10.468 15.4674C10.3911 15.5446 10.2953 15.5831 10.1807 15.5831H9.82423ZM10 9.62482L13.375 5.49982H6.60421L10 9.62482Z" fill="#1C1B1F"/>
</g>
</svg>
