<svg width="127" height="99" viewBox="0 0 127 99" fill="none" xmlns="http://www.w3.org/2000/svg">
<path d="M12.0831 98.56C8.81889 98.56 6.07305 97.4482 3.81837 95.2219C1.56393 92.9959 0.44 90.2872 0.44 87.0691V11.9309C0.44 8.71278 1.56393 6.00414 3.81837 3.7781C6.07305 1.55183 8.81889 0.44 12.0831 0.44H42.2136C46.3062 0.44 50.234 2.05239 53.1462 4.9279L57.1673 8.89833C60.2442 11.9365 64.3941 13.64 68.7182 13.64H114.917C118.181 13.64 120.927 14.7519 123.182 16.9781C125.436 19.2042 126.56 21.9128 126.56 25.1309V87.0691C126.56 90.2872 125.436 92.9959 123.182 95.2219C120.927 97.4482 118.181 98.56 114.917 98.56H12.0831Z" fill="#FBDC82" stroke="#767680" stroke-width="0.88"/>
</svg>
