<svg width="20" height="20" viewBox="0 0 20 20" fill="none" xmlns="http://www.w3.org/2000/svg">
<path d="M3.33975 15.1666C2.97436 15.1666 2.65972 15.0347 2.39583 14.7708C2.13195 14.5069 2 14.1923 2 13.8269V5.33975C2 4.96464 2.13195 4.64757 2.39583 4.38854C2.65972 4.12951 2.97436 4 3.33975 4H6.84669C7.02462 4 7.19588 4.03206 7.36046 4.09617C7.52504 4.16026 7.67571 4.26069 7.81246 4.39744L9.41502 6H15.8269C16.202 6 16.5191 6.12951 16.7781 6.38854C17.0371 6.64757 17.1666 6.96464 17.1666 7.33975V13.8269C17.1666 14.1923 17.0371 14.5069 16.7781 14.7708C16.5191 15.0347 16.202 15.1666 15.8269 15.1666H3.33975Z" fill="#FBDC82"/>
<path fill-rule="evenodd" clip-rule="evenodd" d="M6.96119 5.12115C6.92484 5.10699 6.88905 5.1 6.84669 5.1H3.33975C3.26641 5.1 3.22737 5.1137 3.16639 5.17356C3.11663 5.2224 3.1 5.25512 3.1 5.33975V13.8269C3.1 13.8936 3.11111 13.9304 3.17365 13.993C3.23619 14.0555 3.27301 14.0666 3.33975 14.0666H15.8269C15.9115 14.0666 15.9442 14.05 15.9931 14.0002C16.0529 13.9393 16.0666 13.9002 16.0666 13.8269V7.33975C16.0666 7.24854 16.0475 7.21362 16.0003 7.16636C15.953 7.1191 15.9181 7.1 15.8269 7.1H8.95938L7.03464 5.17526C6.9953 5.13592 6.97082 5.1249 6.96119 5.12115ZM7.36046 4.09617C7.19588 4.03206 7.02462 4 6.84669 4H3.33975C2.97436 4 2.65972 4.12951 2.39583 4.38854C2.13195 4.64757 2 4.96464 2 5.33975V13.8269C2 14.1923 2.13195 14.5069 2.39583 14.7708C2.65972 15.0347 2.97436 15.1666 3.33975 15.1666H15.8269C16.202 15.1666 16.5191 15.0347 16.7781 14.7708C17.0371 14.5069 17.1666 14.1923 17.1666 13.8269V7.33975C17.1666 6.96464 17.0371 6.64757 16.7781 6.38854C16.5191 6.12951 16.202 6 15.8269 6H9.41502L7.81246 4.39744C7.67571 4.26069 7.52504 4.16026 7.36046 4.09617Z" fill="#767680"/>
</svg>
