<svg width="20" height="20" viewBox="0 0 20 20" fill="none" xmlns="http://www.w3.org/2000/svg">
<path d="M17.0144 8.74358C17.4556 8.74358 17.8157 8.92226 18.0945 9.27963C18.3734 9.637 18.4417 10.0347 18.2996 10.4727L17.1763 14.2564C17.0812 14.5277 16.962 14.7473 16.8189 14.915C16.6757 15.0828 16.4519 15.1666 16.1474 15.1666H3.29167C2.90064 15.1666 2.5876 15.0422 2.35256 14.7932C2.11752 14.5443 2 14.2382 2 13.875V5.33975C2 4.9765 2.12553 4.6624 2.3766 4.39744C2.62767 4.13248 2.94872 4 3.33975 4H6.85415C7.02722 4 7.19949 4.03206 7.37096 4.09617C7.54243 4.16026 7.6896 4.26069 7.81246 4.39744L9.41502 6H15.8477C16.1928 6 16.4727 6.1031 16.6874 6.30929C16.9022 6.51549 17.0448 6.77349 17.1153 7.08331L17.0144 8.74358Z" fill="#FBDC82"/>
<path fill-rule="evenodd" clip-rule="evenodd" d="M3.29167 15.1666H16.1474C16.4519 15.1666 16.6757 15.0828 16.8189 14.915C16.962 14.7473 17.0812 14.5277 17.1763 14.2564L18.2996 10.4727C18.4417 10.0347 18.3734 9.637 18.0945 9.27963C17.888 9.01493 17.6369 8.84826 17.3413 8.77963C17.2961 8.76914 17.2498 8.76093 17.2026 8.75502C17.1416 8.7474 17.0789 8.74358 17.0144 8.74358L17.1153 7.08331C17.0448 6.77349 16.9022 6.51549 16.6874 6.30929C16.4727 6.1031 16.1928 6 15.8477 6H9.41502L7.81246 4.39744C7.6896 4.26069 7.54243 4.16026 7.37096 4.09617C7.19949 4.03206 7.02722 4 6.85415 4H3.33975C2.94872 4 2.62767 4.13248 2.3766 4.39744C2.12553 4.6624 2 4.9765 2 5.33975V13.875C2 14.2382 2.11752 14.5443 2.35256 14.7932C2.5876 15.0422 2.90064 15.1666 3.29167 15.1666ZM16.1066 7.19641C16.0773 7.12477 16.0393 7.07326 15.9948 7.03062C15.9871 7.02322 15.9817 7.01968 15.9708 7.0157C15.9574 7.01076 15.9205 7 15.8477 7H9.00081L7.08645 5.08564L7.06858 5.06576C7.05295 5.04836 7.04067 5.04029 7.02082 5.03286C6.95482 5.00819 6.90085 5 6.85415 5H3.33975C3.20144 5 3.15019 5.03491 3.10248 5.08526C3.02647 5.16548 3 5.23379 3 5.33975V13.875C3 13.9994 3.03096 14.0549 3.07886 14.1059L4.31049 9.86159C4.4965 9.22061 5.08364 8.77963 5.75107 8.77963H16.0104L16.1066 7.19641ZM17.1827 9.77963H5.75107C5.52859 9.77963 5.33288 9.92662 5.27088 10.1403L4.10248 14.1666H16.1261C16.1566 14.1132 16.1907 14.0414 16.2252 13.9463L17.3446 10.1761L17.3484 10.1642C17.3766 10.0774 17.3725 10.0332 17.3694 10.0154C17.3665 9.99827 17.3568 9.95971 17.3061 9.8948M17.1827 9.77963C17.2238 9.80267 17.2626 9.83904 17.3061 9.8948Z" fill="#767680"/>
</svg>
