<svg width="20" height="21" viewBox="0 0 20 21" fill="none" xmlns="http://www.w3.org/2000/svg">
<path d="M7.16082 4.64577L7.16086 4.64578C7.24797 4.67971 7.33551 4.73541 7.42355 4.82346L9.02611 6.42602L9.1872 6.58711H9.41502H15.8269C16.06 6.58711 16.236 6.66142 16.3892 6.81456C16.5423 6.9677 16.6166 7.1437 16.6166 7.37686V13.864C16.6166 14.0833 16.545 14.2602 16.3856 14.4226C16.2316 14.5794 16.0567 14.6537 15.8269 14.6537H3.33975C3.12369 14.6537 2.94796 14.5822 2.78474 14.419C2.62153 14.2558 2.55 14.08 2.55 13.864V5.37686C2.55 5.14699 2.62429 4.97209 2.78111 4.81816C2.94355 4.65871 3.12039 4.58711 3.33975 4.58711H6.84669C6.95684 4.58711 7.06036 4.60663 7.16082 4.64577Z" stroke="#46464F" stroke-width="1.1"/>
</svg>
