<svg width="20" height="20" viewBox="0 0 20 20" fill="none" xmlns="http://www.w3.org/2000/svg">
<path d="M7.16082 4.60866L7.16086 4.60867C7.24797 4.6426 7.33551 4.6983 7.42355 4.78635L9.02611 6.38891L9.1872 6.55H9.41502H15.8269C16.06 6.55 16.236 6.62431 16.3892 6.77745C16.5423 6.93059 16.6166 7.10659 16.6166 7.33975V13.8269C16.6166 14.0462 16.545 14.2231 16.3856 14.3855C16.2316 14.5423 16.0567 14.6166 15.8269 14.6166H3.33975C3.12369 14.6166 2.94796 14.5451 2.78474 14.3819C2.62153 14.2187 2.55 14.0429 2.55 13.8269V5.33975C2.55 5.10988 2.62429 4.93498 2.78111 4.78105C2.94355 4.62161 3.12039 4.55 3.33975 4.55H6.84669C6.95684 4.55 7.06036 4.56952 7.16082 4.60866Z" fill="#1931A9" stroke="#1931A9" stroke-width="1.1"/>
</svg>
