<svg width="24" height="24" viewBox="0 0 24 24" fill="none" xmlns="http://www.w3.org/2000/svg">
<mask id="mask0_4295_13159" style="mask-type:alpha" maskUnits="userSpaceOnUse" x="0" y="0" width="24" height="24">
<rect width="24" height="24" fill="#D9D9D9"/>
</mask>
<g mask="url(#mask0_4295_13159)">
<path d="M3.5 16.4951V7.37004C3.5 6.86818 3.67701 6.44063 4.03102 6.08742C4.38503 5.73422 4.81058 5.55762 5.3077 5.55762H18.6923C19.1894 5.55762 19.6149 5.73422 19.9689 6.08742C20.3229 6.44063 20.5 6.86818 20.5 7.37004V16.4951C20.5 16.997 20.3229 17.4245 19.9689 17.7777C19.6149 18.1309 19.1894 18.3075 18.6923 18.3075H5.3077C4.81058 18.3075 4.38503 18.1309 4.03102 17.7777C3.67701 17.4245 3.5 16.997 3.5 16.4951ZM4.99997 9.30762H7.25V7.05759H5.3077C5.21795 7.05759 5.14423 7.08644 5.08653 7.14414C5.02883 7.20183 4.99997 7.27554 4.99997 7.36529V9.30762ZM8.74995 9.30762H19V7.36529C19 7.27554 18.9711 7.20183 18.9134 7.14414C18.8557 7.08644 18.782 7.05759 18.6923 7.05759H8.74995V9.30762ZM8.74995 13.0576H19V10.8076H8.74995V13.0576ZM8.74995 16.8076H18.6923C18.782 16.8076 18.8557 16.7787 18.9134 16.721C18.9711 16.6633 19 16.5896 19 16.4999V14.5575H8.74995V16.8076ZM5.3077 16.8076H7.25V14.5575H4.99997V16.4999C4.99997 16.5896 5.02883 16.6633 5.08653 16.721C5.14423 16.7787 5.21795 16.8076 5.3077 16.8076ZM4.99997 13.0576H7.25V10.8076H4.99997V13.0576Z" fill="#1C1B1F"/>
</g>
</svg>
