<svg width="20" height="20" viewBox="0 0 20 20" fill="none" xmlns="http://www.w3.org/2000/svg">
<mask id="mask0_1406_12829" style="mask-type:alpha" maskUnits="userSpaceOnUse" x="0" y="0" width="20" height="20">
<rect width="20" height="20" fill="#D9D9D9"/>
</mask>
<g mask="url(#mask0_1406_12829)">
<path d="M10.0037 13.7916C10.3641 13.7916 10.6687 13.6657 10.9176 13.4138C11.1665 13.1619 11.291 12.8559 11.291 12.4956C11.291 12.1353 11.165 11.8306 10.9132 11.5817C10.6613 11.3328 10.3552 11.2083 9.99491 11.2083C9.63461 11.2083 9.33 11.3343 9.08108 11.5861C8.83215 11.838 8.70768 12.1441 8.70768 12.5044C8.70768 12.8647 8.83362 13.1693 9.08549 13.4182C9.33737 13.6672 9.64345 13.7916 10.0037 13.7916ZM5.74985 17.5833C5.3812 17.5833 5.06673 17.4521 4.80645 17.1897C4.54616 16.9274 4.41602 16.612 4.41602 16.2435V8.75642C4.41602 8.38799 4.5472 8.07259 4.80958 7.81023C5.07194 7.54785 5.38733 7.41667 5.75577 7.41667H11.416V5.41667C11.416 4.42219 11.7651 3.57636 12.4632 2.87917C13.1613 2.18197 14.0083 1.83337 15.004 1.83337C15.9998 1.83337 16.8452 2.18197 17.5402 2.87917C18.2352 3.57636 18.5826 4.42219 18.5826 5.41667H17.4993C17.4993 4.72222 17.2563 4.13194 16.7702 3.64583C16.2841 3.15972 15.6938 2.91667 14.9993 2.91667C14.3049 2.91667 13.7146 3.15972 13.2285 3.64583C12.7424 4.13194 12.4993 4.72222 12.4993 5.41667V7.41667H14.2429C14.6113 7.41667 14.9267 7.54785 15.1891 7.81023C15.4515 8.07259 15.5826 8.38799 15.5826 8.75642V16.2435C15.5826 16.612 15.4514 16.9274 15.1888 17.1897C14.9263 17.4521 14.6107 17.5833 14.2421 17.5833H5.74985Z" fill="#1C1B1F"/>
</g>
</svg>
