<svg width="20" height="20" viewBox="0 0 20 20" fill="none" xmlns="http://www.w3.org/2000/svg">
<mask id="mask0_1404_12823" style="mask-type:alpha" maskUnits="userSpaceOnUse" x="0" y="0" width="20" height="20">
<rect width="20" height="20" fill="#D9D9D9"/>
</mask>
<g mask="url(#mask0_1404_12823)">
<path d="M5.74985 17.5833C5.3812 17.5833 5.06673 17.4521 4.80645 17.1897C4.54616 16.9274 4.41602 16.612 4.41602 16.2435V8.75642C4.41602 8.38799 4.5472 8.07259 4.80958 7.81023C5.07194 7.54785 5.38733 7.41667 5.75577 7.41667H6.41602V5.41667C6.41602 4.42219 6.76508 3.57636 7.4632 2.87917C8.16131 2.18197 9.00826 1.83337 10.004 1.83337C10.9998 1.83337 11.8452 2.18197 12.5402 2.87917C13.2352 3.57636 13.5826 4.42219 13.5826 5.41667V7.41667H14.2429C14.6113 7.41667 14.9267 7.54785 15.1891 7.81023C15.4515 8.07259 15.5826 8.38799 15.5826 8.75642V16.2435C15.5826 16.612 15.4514 16.9274 15.1888 17.1897C14.9263 17.4521 14.6107 17.5833 14.2421 17.5833H5.74985ZM10.0037 13.7916C10.3641 13.7916 10.6687 13.6657 10.9176 13.4138C11.1665 13.1619 11.291 12.8559 11.291 12.4956C11.291 12.1353 11.165 11.8306 10.9132 11.5817C10.6613 11.3328 10.3552 11.2083 9.99491 11.2083C9.63461 11.2083 9.33 11.3343 9.08108 11.5861C8.83215 11.838 8.70768 12.1441 8.70768 12.5044C8.70768 12.8647 8.83362 13.1693 9.08549 13.4182C9.33737 13.6672 9.64345 13.7916 10.0037 13.7916ZM7.49933 7.41667H12.4993V5.41667C12.4993 4.72222 12.2563 4.13194 11.7702 3.64583C11.2841 3.15972 10.6938 2.91667 9.99933 2.91667C9.30488 2.91667 8.71461 3.15972 8.22849 3.64583C7.74238 4.13194 7.49933 4.72222 7.49933 5.41667V7.41667Z" fill="#12141C"/>
</g>
</svg>
