<svg width="16" height="17" viewBox="0 0 16 17" fill="none" xmlns="http://www.w3.org/2000/svg">
<path fill-rule="evenodd" clip-rule="evenodd" d="M12.7967 4.82861H3.7998V14.1996H12.7967V4.82861ZM5.66671 7.37495H10.8667C10.9895 7.37495 11.0924 7.33374 11.1754 7.25132C11.2585 7.1689 11.3 7.06676 11.3 6.94492C11.3 6.82307 11.2585 6.71985 11.1754 6.63523C11.0924 6.55061 10.9895 6.5083 10.8667 6.5083H5.66671C5.54394 6.5083 5.44103 6.54952 5.35798 6.63195C5.27493 6.71437 5.2334 6.81651 5.2334 6.93835C5.2334 7.0602 5.27493 7.16342 5.35798 7.24803C5.44103 7.33265 5.54394 7.37495 5.66671 7.37495ZM10.8667 9.89802H5.66671C5.54394 9.89802 5.44103 9.85571 5.35798 9.7711C5.27493 9.68649 5.2334 9.58326 5.2334 9.46142C5.2334 9.33957 5.27493 9.23744 5.35798 9.15502C5.44103 9.07259 5.54394 9.03138 5.66671 9.03138H10.8667C10.9895 9.03138 11.0924 9.07369 11.1754 9.1583C11.2585 9.24291 11.3 9.34614 11.3 9.46798C11.3 9.58983 11.2585 9.69196 11.1754 9.77438C11.0924 9.85681 10.9895 9.89802 10.8667 9.89802ZM9.26672 12.4211H5.66671C5.54394 12.4211 5.44103 12.3788 5.35798 12.2942C5.27493 12.2096 5.2334 12.1063 5.2334 11.9845C5.2334 11.8626 5.27493 11.7605 5.35798 11.6781C5.44103 11.5957 5.54394 11.5545 5.66671 11.5545H9.26672C9.38949 11.5545 9.4924 11.5968 9.57545 11.6814C9.6585 11.766 9.70003 11.8692 9.70003 11.9911C9.70003 12.1129 9.6585 12.215 9.57545 12.2975C9.4924 12.3799 9.38949 12.4211 9.26672 12.4211Z" fill="#1931A9"/>
<path d="M4.0718 14.7318C3.77706 14.7318 3.52474 14.6269 3.31485 14.417C3.10495 14.2071 3 13.9548 3 13.66V5.27034C3 4.97559 3.10495 4.72328 3.31485 4.51339C3.52474 4.30349 3.77706 4.19854 4.0718 4.19854H7.08847C7.07479 3.88401 7.18077 3.60539 7.4064 3.36265C7.63204 3.11991 7.91986 2.99854 8.26985 2.99854C8.61985 2.99854 8.90767 3.11991 9.1333 3.36265C9.35894 3.60539 9.46279 3.88401 9.44483 4.19854H12.4615C12.7562 4.19854 13.0086 4.30349 13.2184 4.51339C13.4283 4.72328 13.5333 4.97559 13.5333 5.27034V13.66C13.5333 13.9548 13.4283 14.2071 13.2184 14.417C13.0086 14.6269 12.7562 14.7318 12.4615 14.7318H4.0718ZM4.0718 13.8652H12.4615C12.5128 13.8652 12.5598 13.8438 12.6025 13.8011C12.6453 13.7583 12.6666 13.7113 12.6666 13.66V5.27034C12.6666 5.21905 12.6453 5.17203 12.6025 5.12929C12.5598 5.08655 12.5128 5.06519 12.4615 5.06519H4.0718C4.02051 5.06519 3.97349 5.08655 3.93075 5.12929C3.88802 5.17203 3.86665 5.21905 3.86665 5.27034V13.66C3.86665 13.7113 3.88802 13.7583 3.93075 13.8011C3.97349 13.8438 4.02051 13.8652 4.0718 13.8652ZM8.26665 4.72929C8.38221 4.72929 8.47776 4.69151 8.55332 4.61595C8.62887 4.5404 8.66665 4.44484 8.66665 4.32929C8.66665 4.21373 8.62887 4.11817 8.55332 4.04262C8.47776 3.96706 8.38221 3.92929 8.26665 3.92929C8.15109 3.92929 8.05554 3.96706 7.97998 4.04262C7.90443 4.11817 7.86665 4.21373 7.86665 4.32929C7.86665 4.44484 7.90443 4.5404 7.97998 4.61595C8.05554 4.69151 8.15109 4.72929 8.26665 4.72929Z" fill="#767680"/>
</svg>
