<svg width="209" height="208" viewBox="0 0 209 208" fill="none" xmlns="http://www.w3.org/2000/svg">
<circle cx="104.5" cy="104" r="90.8533" fill="#C1CBFF"/>
<circle cx="104.5" cy="104" r="101.183" fill="#EFF2FF" stroke="white" stroke-width="5.63431"/>
<mask id="mask0_3438_17468" style="mask-type:alpha" maskUnits="userSpaceOnUse" x="6" y="6" width="197" height="196">
<circle cx="104.5" cy="104" r="97.8962" fill="white"/>
</mask>
<g mask="url(#mask0_3438_17468)">
<g clip-path="url(#clip0_3438_17468)">
<path d="M31.9064 205.092H172.92C175.656 205.092 178.143 202.853 178.143 199.869V95.6628C178.143 92.927 175.905 90.44 172.92 90.44H101.543C99.5533 90.44 97.8124 89.4452 97.0663 87.7043L92.8384 79.2484C91.8436 77.5075 90.1026 76.5127 88.3617 76.5127H29.6681C26.6836 76.5127 24.4453 78.9997 24.4453 81.7354V197.631C24.4453 201.61 27.6784 205.092 31.9064 205.092Z" fill="url(#paint0_linear_3438_17468)"/>
<path d="M174.164 96.6572H28.4248V149.133H174.164V96.6572Z" fill="white"/>
<path d="M30.4144 96.6572H28.4248V149.133H30.4144V96.6572Z" fill="#EFF2FF"/>
<path d="M174.164 96.6572H28.4248V98.8955H174.164V96.6572Z" fill="#EFF2FF"/>
<path d="M183.615 106.357V195.392C183.615 199.62 180.381 202.853 176.154 202.853H31.9064C27.6784 202.853 24.4453 199.62 24.4453 195.392V118.294C24.4453 114.066 27.6784 110.833 31.9064 110.833H104.527C106.517 110.833 108.507 110.087 109.75 108.595L117.211 101.134C118.703 99.6416 120.444 98.8955 122.434 98.8955H176.154C180.381 98.8955 183.615 102.377 183.615 106.357Z" fill="#889BFF"/>
<path d="M183.615 108.595V197.63C183.615 201.858 180.381 205.091 176.154 205.091H31.9064C27.6784 205.091 24.4453 201.858 24.4453 197.63V120.533C24.4453 116.305 27.6784 113.071 31.9064 113.071H104.527C106.517 113.071 108.507 112.325 109.75 110.833L117.211 103.372C118.703 101.88 120.444 101.134 122.434 101.134H176.154C180.381 101.134 183.615 104.616 183.615 108.595Z" fill="url(#paint1_linear_3438_17468)"/>
</g>
<g filter="url(#filter0_f_3438_17468)">
<path d="M102.827 144.605C103.524 143.239 105.475 143.239 106.172 144.605L109.625 151.37C109.898 151.904 110.41 152.277 111.003 152.371L118.503 153.564C120.018 153.805 120.621 155.661 119.537 156.746L114.17 162.12C113.746 162.545 113.55 163.147 113.644 163.74L114.827 171.242C115.066 172.757 113.487 173.904 112.121 173.209L105.351 169.765C104.816 169.493 104.183 169.493 103.648 169.765L96.8783 173.209C95.5115 173.904 93.9326 172.757 94.1715 171.242L95.3549 163.74C95.4484 163.147 95.2528 162.545 94.8286 162.12L89.4614 156.746C88.3778 155.661 88.9809 153.805 90.4953 153.564L97.9962 152.371C98.5891 152.277 99.1012 151.904 99.3741 151.37L102.827 144.605Z" fill="#697DE7"/>
</g>
<path d="M102.827 144.605C103.524 143.239 105.475 143.239 106.172 144.605L109.625 151.37C109.898 151.904 110.41 152.277 111.003 152.371L118.503 153.564C120.018 153.805 120.621 155.661 119.537 156.746L114.17 162.12C113.746 162.545 113.55 163.147 113.644 163.74L114.827 171.242C115.066 172.757 113.487 173.904 112.121 173.209L105.351 169.765C104.816 169.493 104.183 169.493 103.648 169.765L96.8783 173.209C95.5115 173.904 93.9326 172.757 94.1715 171.242L95.3549 163.74C95.4484 163.147 95.2528 162.545 94.8286 162.12L89.4614 156.746C88.3778 155.661 88.9809 153.805 90.4953 153.564L97.9962 152.371C98.5891 152.277 99.1012 151.904 99.3741 151.37L102.827 144.605Z" fill="#FEFEFE"/>
<circle cx="151.377" cy="84.878" r="29.3312" transform="rotate(-60 151.377 84.878)" fill="#F6F9FF" fill-opacity="0.76" stroke="#538FFF" stroke-width="7.04223"/>
<rect x="173.313" y="103.05" width="9.53778" height="41.3304" rx="4.52715" transform="rotate(-60 173.313 103.05)" fill="#538FFF"/>
</g>
<defs>
<filter id="filter0_f_3438_17468" x="79.5196" y="134.19" width="49.9597" height="48.6175" filterUnits="userSpaceOnUse" color-interpolation-filters="sRGB">
<feFlood flood-opacity="0" result="BackgroundImageFix"/>
<feBlend mode="normal" in="SourceGraphic" in2="BackgroundImageFix" result="shape"/>
<feGaussianBlur stdDeviation="4.69526" result="effect1_foregroundBlur_3438_17468"/>
</filter>
<linearGradient id="paint0_linear_3438_17468" x1="101.294" y1="76.5127" x2="101.294" y2="127.945" gradientUnits="userSpaceOnUse">
<stop stop-color="#9FAEFB"/>
<stop offset="1" stop-color="#5068E0"/>
</linearGradient>
<linearGradient id="paint1_linear_3438_17468" x1="104.03" y1="101.134" x2="104.03" y2="205.091" gradientUnits="userSpaceOnUse">
<stop stop-color="#4D64DE"/>
<stop offset="1" stop-color="#B5C0FF"/>
</linearGradient>
<clipPath id="clip0_3438_17468">
<rect width="159.169" height="159.169" fill="white" transform="translate(24.4453 60.0986)"/>
</clipPath>
</defs>
</svg>
