<svg width="32" height="32" viewBox="0 0 32 32" fill="none" xmlns="http://www.w3.org/2000/svg">
<mask id="mask0_3438_17084" style="mask-type:alpha" maskUnits="userSpaceOnUse" x="0" y="0" width="32" height="32">
<rect width="32" height="32" fill="#D9D9D9"/>
</mask>
<g mask="url(#mask0_3438_17084)">
<path d="M7 25.1747C6.71667 25.1747 6.47917 25.0788 6.2875 24.8871C6.09583 24.6954 6 24.4578 6 24.1743C6 23.8908 6.09583 23.6534 6.2875 23.4619C6.47917 23.2705 6.71667 23.1748 7 23.1748H8.41027V13.226C8.41027 11.4329 8.96368 9.84739 10.0705 8.46961C11.1773 7.09184 12.5983 6.21065 14.3333 5.82605V4.99528C14.3333 4.53232 14.4952 4.13881 14.819 3.81475C15.1428 3.49066 15.5359 3.32861 15.9985 3.32861C16.461 3.32861 16.8547 3.49066 17.1794 3.81475C17.5042 4.13881 17.6666 4.53232 17.6666 4.99528V5.82605C19.4016 6.21065 20.8226 7.09184 21.9294 8.46961C23.0363 9.84739 23.5897 11.4329 23.5897 13.226V23.1748H24.9999C25.2833 23.1748 25.5208 23.2706 25.7124 23.4624C25.9041 23.6541 25.9999 23.8917 25.9999 24.1752C25.9999 24.4586 25.9041 24.6961 25.7124 24.8875C25.5208 25.079 25.2833 25.1747 24.9999 25.1747H7ZM15.9977 28.9183C15.3343 28.9183 14.7671 28.6823 14.2961 28.2103C13.8252 27.7383 13.5897 27.1709 13.5897 26.5081H18.4102C18.4102 27.173 18.174 27.7409 17.7015 28.2119C17.2291 28.6828 16.6611 28.9183 15.9977 28.9183ZM10.4102 23.1748H21.5897V13.226C21.5897 11.6824 21.044 10.3649 19.9525 9.27345C18.8611 8.18198 17.5436 7.63625 16 7.63625C14.4564 7.63625 13.1388 8.18198 12.0474 9.27345C10.9559 10.3649 10.4102 11.6824 10.4102 13.226V23.1748Z" fill="#767680"/>
</g>
</svg>
