<svg width="32" height="32" viewBox="0 0 32 32" fill="none" xmlns="http://www.w3.org/2000/svg">
<rect width="32" height="32" rx="16" fill="#DEE0FF"/>
<path d="M16 20.4656C16.9663 20.4656 17.7854 20.1295 18.4575 19.4575C19.1295 18.7854 19.4656 17.9663 19.4656 17C19.4656 16.0337 19.1295 15.2146 18.4575 14.5425C17.7854 13.8705 16.9663 13.5344 16 13.5344C15.0337 13.5344 14.2146 13.8705 13.5425 14.5425C12.8705 15.2146 12.5344 16.0337 12.5344 17C12.5344 17.9663 12.8705 18.7854 13.5425 19.4575C14.2146 20.1295 15.0337 20.4656 16 20.4656ZM16 19.2024C15.3781 19.2024 14.8556 18.9908 14.4324 18.5676C14.0092 18.1444 13.7976 17.6219 13.7976 17C13.7976 16.3781 14.0092 15.8556 14.4324 15.4324C14.8556 15.0092 15.3781 14.7976 16 14.7976C16.6219 14.7976 17.1444 15.0092 17.5676 15.4324C17.9908 15.8556 18.2024 16.3781 18.2024 17C18.2024 17.6219 17.9908 18.1444 17.5676 18.5676C17.1444 18.9908 16.6219 19.2024 16 19.2024ZM9.52228 23.3158C9.0969 23.3158 8.73684 23.1684 8.44211 22.8737C8.14737 22.5789 8 22.2189 8 21.7935V12.2065C8 11.7811 8.14737 11.4211 8.44211 11.1263C8.73684 10.8316 9.0969 10.6842 9.52228 10.6842H12.0939L13.1951 9.4907C13.3333 9.33847 13.5004 9.21863 13.6964 9.13118C13.8923 9.04373 14.0988 9 14.3158 9H17.6842C17.9012 9 18.1077 9.04373 18.3036 9.13118C18.4996 9.21863 18.6667 9.33847 18.8048 9.4907L19.9061 10.6842H22.4777C22.9031 10.6842 23.2632 10.8316 23.5579 11.1263C23.8526 11.4211 24 11.7811 24 12.2065V21.7935C24 22.2189 23.8526 22.5789 23.5579 22.8737C23.2632 23.1684 22.9031 23.3158 22.4777 23.3158H9.52228ZM9.52228 22.0526H22.4777C22.5533 22.0526 22.6154 22.0283 22.664 21.9798C22.7126 21.9312 22.7369 21.8691 22.7369 21.7935V12.2065C22.7369 12.1309 22.7126 12.0688 22.664 12.0202C22.6154 11.9716 22.5533 11.9474 22.4777 11.9474H19.3425L17.7976 10.2631H14.2024L12.6575 11.9474H9.52228C9.4467 11.9474 9.38461 11.9716 9.33602 12.0202C9.28744 12.0688 9.26314 12.1309 9.26314 12.2065V21.7935C9.26314 21.8691 9.28744 21.9312 9.33602 21.9798C9.38461 22.0283 9.4467 22.0526 9.52228 22.0526Z" fill="#1931A9"/>
</svg>
