<svg width="24" height="24" viewBox="0 0 24 24" fill="none" xmlns="http://www.w3.org/2000/svg">
<mask id="mask0_116_460" style="mask-type:alpha" maskUnits="userSpaceOnUse" x="0" y="0" width="24" height="24">
<rect width="24" height="24" fill="#D9D9D9"/>
</mask>
<g mask="url(#mask0_116_460)">
<path d="M17.5499 9.5308L21.2577 5.8077C21.4064 5.65899 21.583 5.58463 21.7875 5.58463C21.9919 5.58463 22.1717 5.65899 22.3268 5.8077C22.482 5.95642 22.558 6.13462 22.5548 6.3423C22.5515 6.55 22.4756 6.7282 22.3268 6.8769L18.1826 11.0115C18.0019 11.1923 17.791 11.2827 17.5499 11.2827C17.3089 11.2827 17.098 11.1923 16.9173 11.0115L14.8981 8.9923C14.7493 8.84359 14.6734 8.66859 14.6701 8.4673C14.6669 8.26604 14.7429 8.08784 14.8981 7.9327C15.0491 7.78399 15.2253 7.70963 15.4267 7.70963C15.6281 7.70963 15.8031 7.78399 15.9518 7.9327L17.5499 9.5308ZM8.99995 11.6923C8.03747 11.6923 7.21352 11.3496 6.5281 10.6642C5.84268 9.97876 5.49998 9.15481 5.49998 8.19233C5.49998 7.22983 5.84268 6.40588 6.5281 5.72048C7.21352 5.03506 8.03747 4.69235 8.99995 4.69235C9.96243 4.69235 10.7864 5.03506 11.4718 5.72048C12.1572 6.40588 12.4999 7.22983 12.4999 8.19233C12.4999 9.15481 12.1572 9.97876 11.4718 10.6642C10.7864 11.3496 9.96243 11.6923 8.99995 11.6923ZM1.5 17.7885V17.0846C1.5 16.5949 1.633 16.1414 1.899 15.7241C2.16503 15.3068 2.52048 14.9859 2.96535 14.7616C3.95382 14.2769 4.95093 13.9135 5.9567 13.6712C6.96247 13.4289 7.97688 13.3077 8.99995 13.3077C10.023 13.3077 11.0374 13.4289 12.0432 13.6712C13.049 13.9135 14.0461 14.2769 15.0345 14.7616C15.4794 14.9859 15.8349 15.3068 16.1009 15.7241C16.3669 16.1414 16.4999 16.5949 16.4999 17.0846V17.7885C16.4999 18.2102 16.3522 18.5689 16.0567 18.8644C15.7612 19.1599 15.4025 19.3077 14.9807 19.3077H3.01917C2.59739 19.3077 2.23875 19.1599 1.94325 18.8644C1.64775 18.5689 1.5 18.2102 1.5 17.7885ZM2.99995 17.8077H14.9999V17.0846C14.9999 16.882 14.9413 16.6945 14.824 16.5221C14.7067 16.3497 14.5474 16.209 14.3461 16.1C13.4846 15.6756 12.6061 15.3542 11.7107 15.1356C10.8152 14.917 9.91165 14.8077 8.99995 14.8077C8.08825 14.8077 7.18468 14.917 6.28925 15.1356C5.39382 15.3542 4.51533 15.6756 3.6538 16.1C3.45252 16.209 3.29323 16.3497 3.17593 16.5221C3.05861 16.6945 2.99995 16.882 2.99995 17.0846V17.8077ZM8.99995 10.1923C9.54995 10.1923 10.0208 9.99649 10.4124 9.60483C10.8041 9.21316 10.9999 8.74233 10.9999 8.19233C10.9999 7.64233 10.8041 7.17149 10.4124 6.77983C10.0208 6.38816 9.54995 6.19233 8.99995 6.19233C8.44995 6.19233 7.97912 6.38816 7.58745 6.77983C7.19578 7.17149 6.99995 7.64233 6.99995 8.19233C6.99995 8.74233 7.19578 9.21316 7.58745 9.60483C7.97912 9.99649 8.44995 10.1923 8.99995 10.1923Z" fill="#1C1B1F"/>
</g>
</svg>
