<svg width="20" height="21" viewBox="0 0 20 21" fill="none" xmlns="http://www.w3.org/2000/svg">
<rect y="0.649902" width="20" height="20" rx="10" fill="#C7C5D0"/>
<mask id="mask0_3438_18664" style="mask-type:alpha" maskUnits="userSpaceOnUse" x="0" y="0" width="20" height="21">
<rect y="0.649902" width="20" height="20" fill="#D9D9D9"/>
</mask>
<g mask="url(#mask0_3438_18664)">
<path d="M9.99589 16.0407C9.69676 16.0407 9.44217 15.9342 9.2321 15.7212C9.02203 15.5082 8.91699 15.2521 8.91699 14.953C8.91699 14.6539 9.0235 14.3993 9.23651 14.1892C9.44953 13.9792 9.7056 13.8741 10.0047 13.8741C10.3038 13.8741 10.5584 13.9807 10.7685 14.1937C10.9786 14.4067 11.0836 14.6627 11.0836 14.9619C11.0836 15.261 10.9771 15.5156 10.7641 15.7257C10.5511 15.9357 10.295 16.0407 9.99589 16.0407ZM9.99589 11.7331C9.69676 11.7331 9.44217 11.6266 9.2321 11.4136C9.02203 11.2005 8.91699 10.9445 8.91699 10.6454C8.91699 10.3462 9.0235 10.0916 9.23651 9.88156C9.44953 9.67149 9.7056 9.56646 10.0047 9.56646C10.3038 9.56646 10.5584 9.67296 10.7685 9.88598C10.9786 10.099 11.0836 10.3551 11.0836 10.6542C11.0836 10.9533 10.9771 11.2079 10.7641 11.418C10.5511 11.628 10.295 11.7331 9.99589 11.7331ZM9.99589 7.42539C9.69676 7.42539 9.44217 7.31889 9.2321 7.10587C9.02203 6.89286 8.91699 6.63679 8.91699 6.33766C8.91699 6.03854 9.0235 5.78394 9.23651 5.57387C9.44953 5.36382 9.7056 5.25879 10.0047 5.25879C10.3038 5.25879 10.5584 5.3653 10.7685 5.57831C10.9786 5.79132 11.0836 6.04739 11.0836 6.34652C11.0836 6.64564 10.9771 6.90023 10.7641 7.11029C10.5511 7.32036 10.295 7.42539 9.99589 7.42539Z" fill="#1C1B1F"/>
</g>
</svg>
