<svg width="24" height="24" viewBox="0 0 24 24" fill="none" xmlns="http://www.w3.org/2000/svg">
<path fill-rule="evenodd" clip-rule="evenodd" d="M15.0159 13.5239L20.7459 19.2539L19.2559 20.7439L13.5259 15.0139C12.4559 15.7839 11.1659 16.2539 9.75586 16.2539C6.16586 16.2539 3.25586 13.3439 3.25586 9.75391C3.25586 6.16391 6.16586 3.25391 9.75586 3.25391C13.3459 3.25391 16.2559 6.16391 16.2559 9.75391C16.2559 11.1639 15.7859 12.4539 15.0159 13.5239ZM9.75586 5.25391C7.26586 5.25391 5.25586 7.26391 5.25586 9.75391C5.25586 12.2439 7.26586 14.2539 9.75586 14.2539C12.2459 14.2539 14.2559 12.2439 14.2559 9.75391C14.2559 7.26391 12.2459 5.25391 9.75586 5.25391Z" fill="#46464F"/>
</svg>
