<svg width="20" height="20" viewBox="0 0 20 20" fill="none" xmlns="http://www.w3.org/2000/svg">
<rect y="20" width="20" height="20" rx="10" transform="rotate(-90 0 20)" fill="#C7C5D0"/>
<mask id="mask0_4228_8370" style="mask-type:alpha" maskUnits="userSpaceOnUse" x="0" y="0" width="20" height="20">
<rect y="20" width="20" height="20" transform="rotate(-90 0 20)" fill="#D9D9D9"/>
</mask>
<g mask="url(#mask0_4228_8370)">
<path d="M15.3908 10.0046C15.3908 10.3037 15.2843 10.5583 15.0713 10.7684C14.8583 10.9785 14.6022 11.0835 14.3031 11.0835C14.004 11.0835 13.7494 10.977 13.5393 10.764C13.3293 10.551 13.2242 10.2949 13.2242 9.99577C13.2242 9.69664 13.3307 9.44204 13.5438 9.23197C13.7568 9.02191 14.0128 8.91687 14.312 8.91687C14.6111 8.91687 14.8657 9.02338 15.0758 9.23639C15.2858 9.44941 15.3908 9.70548 15.3908 10.0046ZM11.0832 10.0046C11.0832 10.3037 10.9767 10.5583 10.7637 10.7684C10.5506 10.9785 10.2946 11.0835 9.99545 11.0835C9.69632 11.0835 9.44173 10.977 9.23166 10.764C9.02159 10.551 8.91655 10.2949 8.91655 9.99577C8.91655 9.69664 9.02306 9.44204 9.23608 9.23197C9.44909 9.02191 9.70516 8.91687 10.0043 8.91687C10.3034 8.91687 10.558 9.02338 10.7681 9.23639C10.9781 9.44941 11.0832 9.70548 11.0832 10.0046ZM6.77549 10.0046C6.77549 10.3037 6.66898 10.5583 6.45597 10.7684C6.24296 10.9785 5.98689 11.0835 5.68776 11.0835C5.38864 11.0835 5.13404 10.977 4.92397 10.764C4.71391 10.551 4.60889 10.2949 4.60889 9.99577C4.60889 9.69664 4.71539 9.44204 4.92841 9.23197C5.14142 9.02191 5.39749 8.91687 5.69662 8.91687C5.99574 8.91687 6.25033 9.02338 6.46039 9.23639C6.67046 9.44941 6.77549 9.70548 6.77549 10.0046Z" fill="#1C1B1F"/>
</g>
</svg>
