<svg width="20" height="20" viewBox="0 0 20 20" fill="none" xmlns="http://www.w3.org/2000/svg">
<mask id="mask0_3438_17787" style="mask-type:alpha" maskUnits="userSpaceOnUse" x="0" y="0" width="20" height="20">
<rect width="20" height="20" fill="#D9D9D9"/>
</mask>
<g mask="url(#mask0_3438_17787)">
<path d="M9.45866 11.1456V13.9468C9.45866 14.1001 9.51008 14.2285 9.61291 14.3319C9.71576 14.4353 9.84342 14.487 9.99591 14.487C10.1484 14.487 10.2775 14.4353 10.3833 14.3319C10.4891 14.2285 10.542 14.1001 10.542 13.9468V11.1456L11.5553 12.1589C11.6073 12.2109 11.6686 12.249 11.7391 12.273C11.8096 12.2971 11.8766 12.3104 11.9402 12.3131C12.0038 12.3158 12.0735 12.3051 12.1493 12.281C12.2252 12.257 12.2872 12.2209 12.3352 12.1729C12.456 12.0575 12.515 11.9285 12.5123 11.7859C12.5096 11.6432 12.4516 11.5152 12.3381 11.4017L10.465 9.52867C10.3995 9.45825 10.3308 9.4086 10.2589 9.37969C10.1869 9.3508 10.1007 9.33636 10.0003 9.33636C9.89987 9.33636 9.81369 9.3508 9.74174 9.37969C9.66978 9.4086 9.60106 9.45825 9.53558 9.52867L7.66251 11.4017C7.55439 11.5098 7.50086 11.6343 7.50193 11.7752C7.503 11.9161 7.56176 12.0417 7.6782 12.152C7.79358 12.2728 7.92258 12.3318 8.0652 12.3291C8.20783 12.3264 8.33491 12.2693 8.44645 12.1578L9.45866 11.1456ZM5.75083 17.5831C5.37549 17.5831 5.05935 17.4536 4.80241 17.1946C4.54546 16.9356 4.41699 16.6185 4.41699 16.2434V3.75625C4.41699 3.38114 4.54651 3.06407 4.80553 2.80505C5.06456 2.54602 5.38163 2.4165 5.75674 2.4165H11.6478C11.8239 2.4165 11.9935 2.44856 12.1565 2.51267C12.3195 2.57677 12.4693 2.67719 12.6061 2.81394L15.1862 5.39403C15.3229 5.53079 15.4234 5.68066 15.4874 5.84365C15.5516 6.00662 15.5836 6.17619 15.5836 6.35236V16.2434C15.5836 16.6185 15.454 16.9356 15.1948 17.1946C14.9356 17.4536 14.6184 17.5831 14.243 17.5831H5.75083ZM11.417 5.91325V3.49982H5.75674C5.69263 3.49982 5.63386 3.52653 5.58043 3.57994C5.52701 3.63337 5.5003 3.69214 5.5003 3.75625V16.2434C5.5003 16.3075 5.52701 16.3663 5.58043 16.4197C5.63386 16.4731 5.69263 16.4998 5.75674 16.4998H14.2439C14.308 16.4998 14.3667 16.4731 14.4202 16.4197C14.4736 16.3663 14.5003 16.3075 14.5003 16.2434V6.58313H12.0869C11.8957 6.58313 11.7363 6.51926 11.6086 6.39153C11.4809 6.2638 11.417 6.10438 11.417 5.91325Z" fill="#12141C"/>
</g>
</svg>
